<?xml version="1.0" encoding="UTF-8" standalone="no"?> <svg width="48" height="48" viewBox="0 0 48 48" fill="none" xmlns="http://www.w3.org/2000/svg">
<path d="M16.5631 13.024L24.9001 8.34396C24.9171 8.33496 24.9331 8.32496 24.9501 8.31396C25.2421 8.1207 25.5818 8.01189 25.9317 7.99954C26.2817 7.98719 26.6282 8.07177 26.9331 8.24396C27.2611 8.42375 27.5338 8.68967 27.7219 9.01303C27.9099 9.3364 28.0061 9.70495 28.0001 10.079V22.615C28.0001 22.8802 28.1055 23.1345 28.293 23.3221C28.4805 23.5096 28.7349 23.615 29.0001 23.615C29.2653 23.615 29.5197 23.5096 29.7072 23.3221C29.8947 23.1345 30.0001 22.8802 30.0001 22.615V10.079C30.0032 9.34673 29.8092 8.62716 29.4385 7.99569C29.0678 7.36423 28.534 6.84414 27.8931 6.48996C27.2776 6.14657 26.5805 5.97664 25.8761 5.9983C25.1716 6.01996 24.4863 6.2324 23.8931 6.61296L15.5841 11.28C15.3535 11.4101 15.1839 11.6265 15.1126 11.8815C15.0413 12.1365 15.0741 12.4094 15.2037 12.6403C15.3333 12.8712 15.5492 13.0413 15.8041 13.1132C16.0589 13.1851 16.3319 13.153 16.5631 13.024V13.024Z" fill="black"/>
<path d="M42.0551 11.428C41.9034 11.2104 41.6714 11.0619 41.4103 11.0153C41.1492 10.9687 40.8802 11.0278 40.6626 11.1795C40.445 11.3312 40.2965 11.5631 40.2499 11.8242C40.2033 12.0854 40.2624 12.3544 40.4141 12.572C42.4947 15.5622 43.7196 19.0636 43.9568 22.6987C44.194 26.3338 43.4345 29.9647 41.7601 33.2C41.638 33.4353 41.6144 33.7096 41.6945 33.9624C41.7745 34.2152 41.9517 34.4258 42.1871 34.548C42.329 34.6224 42.4868 34.6612 42.6471 34.661C42.8303 34.6611 43.01 34.6109 43.1666 34.5158C43.3232 34.4208 43.4506 34.2845 43.5351 34.122C45.3787 30.5621 46.2152 26.5664 45.9544 22.566C45.6936 18.5656 44.3453 14.7123 42.0551 11.422V11.428Z" fill="black"/>
<path d="M36 24.0001C36.0021 25.3848 35.7415 26.7574 35.232 28.0451C35.1799 28.1678 35.1528 28.2998 35.1524 28.4332C35.1521 28.5666 35.1784 28.6987 35.2299 28.8218C35.2813 28.9448 35.3569 29.0564 35.4521 29.1498C35.5474 29.2432 35.6603 29.3166 35.7843 29.3657C35.9084 29.4148 36.0409 29.4386 36.1743 29.4357C36.3077 29.4328 36.4391 29.4032 36.5609 29.3487C36.6826 29.2943 36.7923 29.216 36.8833 29.1185C36.9743 29.021 37.045 28.9063 37.091 28.7811C37.8787 26.786 38.1609 24.6272 37.9124 22.4967C37.664 20.3663 36.8926 18.3303 35.667 16.5701C35.5923 16.4611 35.4968 16.3679 35.3859 16.2961C35.275 16.2242 35.151 16.1751 35.021 16.1514C34.891 16.1278 34.7577 16.1301 34.6286 16.1583C34.4995 16.1865 34.3773 16.24 34.269 16.3157C34.1607 16.3914 34.0685 16.4878 33.9977 16.5994C33.9269 16.7109 33.8789 16.8354 33.8565 16.9656C33.8341 17.0958 33.8377 17.2292 33.8672 17.358C33.8966 17.4868 33.9513 17.6085 34.028 17.7161C35.3164 19.5579 36.0051 21.7524 36 24.0001Z" fill="black"/>
<path d="M6.629 8.65104C6.42279 8.48422 6.15876 8.40615 5.89499 8.434C5.63122 8.46185 5.38932 8.59334 5.2225 8.79954C5.05568 9.00575 4.97761 9.26978 5.00545 9.53355C5.0333 9.79732 5.16479 10.0392 5.371 10.206L10.058 14H6.5C5.30653 14 4.16193 14.4742 3.31802 15.3181C2.47411 16.162 2 17.3066 2 18.5V29.5C2 30.6935 2.47411 31.8381 3.31802 32.682C4.16193 33.5259 5.30653 34 6.5 34H10.738L23.9 41.387C24.4934 41.767 25.1787 41.9791 25.883 42.0007C26.5873 42.0224 27.2843 41.8528 27.9 41.51C28.5396 41.1549 29.0719 40.6345 29.4414 40.0031C29.8108 39.3717 30.0038 38.6526 30 37.921V30.143L41.371 39.349C41.5772 39.5159 41.8412 39.5939 42.105 39.5661C42.3688 39.5382 42.6107 39.4068 42.7775 39.2005C42.9443 38.9943 43.0224 38.7303 42.9945 38.4665C42.9667 38.2028 42.8352 37.9609 42.629 37.794L6.629 8.65104ZM4 29.5V18.5C4 17.837 4.26339 17.2011 4.73223 16.7323C5.20107 16.2634 5.83696 16 6.5 16H10V32H6.5C5.83696 32 5.20107 31.7367 4.73223 31.2678C4.26339 30.799 4 30.1631 4 29.5ZM28 37.921C28.0059 38.2952 27.9095 38.6638 27.7213 38.9872C27.5331 39.3105 27.2602 39.5764 26.932 39.756C26.6271 39.9282 26.2806 40.0128 25.9306 40.0005C25.5807 39.9881 25.241 39.8793 24.949 39.686C24.932 39.675 24.916 39.665 24.899 39.656L12 32.415V15.585L12.009 15.58L28 28.524V37.921Z" fill="black"/>
</svg>
