<?xml version="1.0" encoding="UTF-8" standalone="no"?> <svg width="512" height="512" viewBox="0 0 512 512" fill="none" xmlns="http://www.w3.org/2000/svg">
<path d="M117.333 352L260.373 432.3C281.687 445.948 309.333 430.249 309.333 404.5V107.506C309.333 81.754 281.687 66.054 260.373 79.706L117.333 160H69.333C59.4317 160 49.9359 163.933 42.9346 170.935C35.9333 177.936 32 187.432 32 197.333V314.667C32 324.568 35.9333 334.064 42.9346 341.065C49.9359 348.067 59.4317 352 69.333 352H117.333Z" fill="#BAC2C6"/>
<path d="M69.333 160C59.4317 160 49.9359 163.933 42.9346 170.935C35.9333 177.936 32 187.432 32 197.333V314.667C32 324.568 35.9333 334.064 42.9346 341.065C49.9359 348.067 59.4317 352 69.333 352H117.333V160H69.333Z" fill="#2D4A60"/>
<path d="M176.673 138.923L265.591 88.9999C265.769 88.8999 265.945 88.7939 266.118 88.6839C269.232 86.6167 272.858 85.4525 276.593 85.3205C280.328 85.1885 284.027 86.0937 287.279 87.9359C290.778 89.8529 293.688 92.6887 295.694 96.1376C297.7 99.5865 298.726 103.518 298.662 107.507V241.227C298.649 242.636 298.915 244.035 299.444 245.341C299.974 246.647 300.758 247.835 301.75 248.836C302.742 249.838 303.922 250.633 305.223 251.175C306.524 251.718 307.919 251.997 309.329 251.997C310.738 251.997 312.134 251.718 313.435 251.175C314.736 250.633 315.916 249.838 316.908 248.836C317.9 247.835 318.683 246.647 319.213 245.341C319.743 244.035 320.009 242.636 319.995 241.227V107.509C320.029 99.698 317.961 92.0218 314.007 85.2857C310.052 78.5495 304.358 73.0016 297.521 69.2239C290.961 65.5703 283.534 63.7632 276.029 63.9949C268.523 64.2266 261.221 66.4885 254.899 70.5399L166.229 120.32C163.808 121.728 162.037 124.032 161.3 126.735C160.563 129.437 160.918 132.322 162.29 134.764C163.661 137.207 165.939 139.012 168.63 139.789C171.321 140.567 174.21 140.255 176.673 138.92V138.923Z" fill="black"/>
<path d="M448.586 121.9C446.967 119.579 444.493 117.997 441.708 117.5C438.923 117.004 436.054 117.634 433.733 119.252C431.413 120.871 429.83 123.345 429.334 126.13C428.837 128.916 429.467 131.784 431.086 134.105C453.279 166.006 466.345 203.36 468.875 242.14C471.404 280.919 463.302 319.654 445.441 354.168C444.137 356.679 443.884 359.605 444.738 362.302C445.591 364.999 447.481 367.247 449.992 368.551C452.503 369.855 455.429 370.108 458.126 369.254C460.823 368.401 463.071 366.511 464.375 364C484.03 326.031 492.947 283.417 490.165 240.753C487.383 198.089 473.007 156.994 448.587 121.9H448.586Z" fill="black"/>
<path d="M384 256C384.026 270.77 381.247 285.411 375.811 299.144C375.257 300.453 374.971 301.859 374.969 303.281C374.967 304.702 375.249 306.109 375.798 307.42C376.347 308.73 377.153 309.918 378.168 310.913C379.183 311.908 380.386 312.69 381.707 313.214C383.028 313.737 384.441 313.991 385.862 313.961C387.283 313.931 388.683 313.618 389.981 313.039C391.279 312.46 392.448 311.627 393.42 310.59C394.392 309.553 395.146 308.333 395.64 307C404.036 285.719 407.043 262.693 404.394 239.969C401.744 217.246 393.52 195.529 380.453 176.751C379.651 175.603 378.63 174.623 377.45 173.869C376.269 173.115 374.952 172.601 373.573 172.356C372.193 172.111 370.78 172.14 369.412 172.442C368.044 172.743 366.749 173.311 365.6 174.113C364.452 174.916 363.473 175.936 362.718 177.116C361.964 178.297 361.45 179.614 361.205 180.993C360.96 182.373 360.99 183.787 361.291 185.155C361.593 186.522 362.161 187.818 362.963 188.966C376.707 208.613 384.053 232.023 384 256V256Z" fill="black"/>
<path d="M70.7101 92.2809C69.623 91.3854 68.3693 90.714 67.0214 90.3056C65.6734 89.8971 64.258 89.7596 62.8566 89.9011C61.4553 90.0426 60.0958 90.4601 58.8567 91.1297C57.6176 91.7993 56.5234 92.7077 55.6372 93.8024C54.7509 94.8971 54.0903 96.1565 53.6934 97.5079C53.2964 98.8592 53.171 100.276 53.3244 101.676C53.4778 103.076 53.907 104.432 54.5871 105.665C55.2672 106.899 56.1849 107.985 57.2871 108.862L107.281 149.333H69.3281C56.6021 149.347 44.4014 154.409 35.4028 163.408C26.4041 172.406 21.3424 184.607 21.3281 197.333V314.667C21.3424 327.393 26.4041 339.594 35.4028 348.592C44.4014 357.591 56.6021 362.653 69.3281 362.667H114.539L254.899 441.459C261.221 445.511 268.524 447.773 276.029 448.005C283.535 448.237 290.963 446.43 297.523 442.776C304.36 438.998 310.055 433.45 314.01 426.714C317.964 419.978 320.033 412.301 319.999 404.49V321.529L441.292 419.718C443.494 421.469 446.298 422.28 449.095 421.974C451.891 421.667 454.454 420.269 456.224 418.082C457.994 415.895 458.829 413.098 458.546 410.299C458.263 407.5 456.887 404.926 454.715 403.137L70.7101 92.2809ZM42.6611 314.667V197.333C42.6699 190.263 45.4822 183.485 50.4814 178.486C55.4805 173.487 62.2583 170.675 69.3281 170.666H106.666V341.333H69.3281C62.2585 341.324 55.4808 338.512 50.4817 333.513C45.4826 328.514 42.6701 321.737 42.6611 314.667V314.667ZM298.661 404.491C298.725 408.48 297.698 412.411 295.693 415.861C293.687 419.31 290.777 422.146 287.278 424.063C284.026 425.904 280.327 426.808 276.592 426.676C272.857 426.544 269.232 425.381 266.117 423.315C265.944 423.204 265.768 423.098 265.59 422.999L127.999 345.758V166.243L128.099 166.186L298.661 304.26V404.491Z" fill="black"/>
</svg>
